<?xml version="1.0" encoding="utf-8"?>
<!-- Generator: Adobe Illustrator 15.1.0, SVG Export Plug-In . SVG Version: 6.00 Build 0)  -->
<!DOCTYPE svg PUBLIC "-//W3C//DTD SVG 1.1//EN" "http://www.w3.org/Graphics/SVG/1.1/DTD/svg11.dtd">
<svg version="1.1" id="Layer_1" xmlns="http://www.w3.org/2000/svg" xmlns:xlink="http://www.w3.org/1999/xlink" x="0px" y="0px"
	 width="104.29px" height="104.289px" viewBox="0 0 104.29 104.289" enable-background="new 0 0 104.29 104.289"
	 xml:space="preserve">
<path id="resisto.rs" fill="#BFBFBF" d="M155.747,33.1v6.588c0,0.941-0.471,1.412-1.412,1.412h-13.647
	c-1.317,0-2.432,0.47-3.341,1.412c-0.91,0.941-1.365,2.07-1.365,3.388v31.435c0,0.941-0.47,1.412-1.412,1.412h-6.588
	c-0.941,0-1.412-0.471-1.412-1.412V45.9c0-1.944,0.36-3.765,1.083-5.459c0.721-1.693,1.709-3.184,2.964-4.471
	c1.255-1.285,2.73-2.306,4.424-3.058c1.694-0.753,3.513-1.161,5.458-1.224h13.835C155.276,31.688,155.747,32.159,155.747,33.1z
	 M188.168,31.688c1.944,0,3.779,0.376,5.505,1.129c1.725,0.753,3.215,1.757,4.471,3.013c1.255,1.255,2.26,2.745,3.011,4.47
	c0.753,1.727,1.131,3.562,1.131,5.506v12.706c0,0.941-0.471,1.412-1.412,1.412h-31.06c-0.941,0-1.411,0.471-1.411,1.411v3.295
	c0,1.316,0.454,2.432,1.364,3.341c0.909,0.91,2.024,1.365,3.341,1.365h25.882c0.941,0,1.412,0.47,1.412,1.411v6.588
	c0,0.941-0.471,1.412-1.412,1.412H173.11c-1.946,0-3.781-0.377-5.506-1.13c-1.727-0.753-3.216-1.756-4.47-3.012
	c-1.256-1.254-2.259-2.744-3.012-4.471c-0.752-1.725-1.129-3.56-1.129-5.505V45.806c0-1.944,0.377-3.779,1.129-5.506
	c0.753-1.725,1.756-3.214,3.012-4.47c1.254-1.255,2.744-2.259,4.47-3.013c1.725-0.752,3.56-1.129,5.506-1.129H188.168z
	 M173.11,41.101c-1.317,0-2.432,0.456-3.341,1.364c-0.91,0.91-1.364,2.023-1.364,3.341v4.706h24.47v-4.706
	c0-1.317-0.456-2.431-1.365-3.341c-0.91-0.909-2.023-1.364-3.341-1.364H173.11z M239.414,67.924
	c0.909-0.941,1.365-2.039,1.365-3.294c0-1.318-0.456-2.432-1.365-3.342c-0.91-0.909-2.023-1.364-3.341-1.364h-15.058
	c-1.945,0-3.781-0.377-5.506-1.129c-1.727-0.754-3.216-1.757-4.471-3.012c-1.256-1.255-2.258-2.746-3.012-4.472
	c-0.752-1.725-1.129-3.56-1.129-5.506c0-1.944,0.376-3.779,1.129-5.506c0.753-1.725,1.756-3.214,3.012-4.47
	c1.255-1.255,2.744-2.259,4.471-3.013c1.725-0.752,3.561-1.129,5.506-1.129h24.94c0.941,0,1.412,0.471,1.412,1.412v6.588
	c0,0.941-0.47,1.412-1.412,1.412h-24.94c-1.318,0-2.432,0.456-3.341,1.364c-0.911,0.91-1.365,2.023-1.365,3.341
	c0,1.256,0.454,2.353,1.365,3.294c0.909,0.941,2.023,1.412,3.341,1.412h15.058c1.944,0,3.779,0.376,5.506,1.13
	c1.726,0.752,3.214,1.756,4.471,3.012c1.253,1.255,2.258,2.745,3.012,4.471s1.129,3.561,1.129,5.506s-0.375,3.78-1.129,5.505
	c-0.753,1.727-1.758,3.217-3.012,4.471c-1.256,1.256-2.745,2.259-4.471,3.012c-1.727,0.753-3.562,1.13-5.506,1.13h-25.035
	c-0.941,0-1.412-0.471-1.412-1.412v-6.588c0-0.941,0.47-1.411,1.412-1.411h25.035C237.391,69.336,238.503,68.865,239.414,67.924z
	 M255.865,14.277c0-0.941,0.471-1.412,1.411-1.412h6.589c0.941,0,1.412,0.471,1.412,1.412v6.588c0,0.941-0.471,1.412-1.412,1.412
	h-6.589c-0.94,0-1.411-0.471-1.411-1.412V14.277z M257.276,78.747c-0.94,0-1.411-0.471-1.411-1.412V33.1
	c0-0.941,0.471-1.412,1.411-1.412h6.589c0.941,0,1.412,0.471,1.412,1.412v44.235c0,0.941-0.471,1.412-1.412,1.412H257.276z
	 M303.412,67.924c0.908-0.941,1.364-2.039,1.364-3.294c0-1.318-0.456-2.432-1.364-3.342c-0.91-0.909-2.023-1.364-3.342-1.364
	h-15.058c-1.946,0-3.781-0.377-5.507-1.129c-1.726-0.754-3.216-1.757-4.471-3.012s-2.258-2.746-3.011-4.472
	c-0.752-1.725-1.13-3.56-1.13-5.506c0-1.944,0.378-3.779,1.13-5.506c0.753-1.725,1.756-3.214,3.011-4.47s2.745-2.259,4.471-3.013
	c1.726-0.752,3.561-1.129,5.507-1.129h24.94c0.941,0,1.411,0.471,1.411,1.412v6.588c0,0.941-0.47,1.412-1.411,1.412h-24.94
	c-1.318,0-2.433,0.456-3.342,1.364c-0.91,0.91-1.364,2.023-1.364,3.341c0,1.256,0.454,2.353,1.364,3.294
	c0.909,0.941,2.023,1.412,3.342,1.412h15.058c1.944,0,3.779,0.376,5.507,1.13c1.726,0.752,3.214,1.756,4.471,3.012
	c1.253,1.255,2.258,2.745,3.012,4.471c0.753,1.726,1.129,3.561,1.129,5.506s-0.376,3.78-1.129,5.505
	c-0.754,1.727-1.759,3.217-3.012,4.471c-1.257,1.256-2.745,2.259-4.471,3.012c-1.728,0.753-3.562,1.13-5.507,1.13h-25.035
	c-0.94,0-1.411-0.471-1.411-1.412v-6.588c0-0.941,0.471-1.411,1.411-1.411h25.035C301.389,69.336,302.502,68.865,303.412,67.924z
	 M347.77,69.336c0.94,0,1.411,0.471,1.411,1.411v6.588c0,0.941-0.471,1.412-1.411,1.412h-8.472c-1.945,0-3.78-0.377-5.505-1.13
	c-1.727-0.753-3.217-1.756-4.471-3.012c-1.256-1.254-2.26-2.744-3.011-4.471c-0.754-1.725-1.131-3.56-1.131-5.505V42.417
	c0-0.941-0.471-1.412-1.41-1.412h-6.589c-0.941,0-1.411-0.471-1.411-1.411V33.1c0-0.941,0.47-1.412,1.411-1.412h6.589
	c0.939,0,1.41-0.471,1.41-1.412V19.077c0-0.941,0.471-1.412,1.411-1.412h6.589c0.941,0,1.412,0.471,1.412,1.412v11.199
	c0,0.941,0.471,1.412,1.411,1.412h11.295c0.94,0,1.411,0.471,1.411,1.412v6.588c0,0.941-0.471,1.412-1.411,1.412h-11.295
	c-0.94,0-1.411,0.47-1.411,1.412V64.63c0,1.316,0.454,2.432,1.364,3.341c0.91,0.91,2.024,1.365,3.341,1.365H347.77z M394.517,31.688
	c0.941,0,1.412,0.471,1.412,1.412v31.53c0,1.945-0.377,3.78-1.131,5.505c-0.752,1.727-1.757,3.217-3.012,4.471
	c-1.255,1.256-2.745,2.259-4.471,3.012c-1.725,0.753-3.561,1.13-5.505,1.13h-15.059c-1.944,0-3.781-0.377-5.505-1.13
	c-1.728-0.753-3.216-1.756-4.471-3.012c-1.257-1.254-2.259-2.744-3.012-4.471c-0.754-1.725-1.129-3.56-1.129-5.505V45.806
	c0-1.944,0.375-3.779,1.129-5.506c0.753-1.725,1.755-3.214,3.012-4.47c1.255-1.255,2.743-2.259,4.471-3.013
	c1.724-0.752,3.561-1.129,5.505-1.129H394.517z M366.752,41.101c-1.317,0-2.432,0.456-3.34,1.364
	c-0.912,0.91-1.366,2.023-1.366,3.341V64.63c0,1.316,0.454,2.432,1.366,3.341c0.908,0.91,2.022,1.365,3.34,1.365h15.059
	c1.317,0,2.432-0.455,3.342-1.365c0.908-0.909,1.364-2.024,1.364-3.341V42.512c0-0.941-0.471-1.412-1.412-1.412H366.752z
	 M400.54,73.852c0-3.481,2.353-5.93,5.647-5.93c3.294,0,5.552,2.448,5.552,5.93c0,3.39-2.165,5.931-5.646,5.931
	C402.798,79.782,400.54,77.241,400.54,73.852z M444.264,33.1v6.588c0,0.941-0.471,1.412-1.412,1.412h-13.646
	c-1.319,0-2.434,0.47-3.342,1.412c-0.91,0.941-1.364,2.07-1.364,3.388v31.435c0,0.941-0.471,1.412-1.412,1.412H416.5
	c-0.941,0-1.412-0.471-1.412-1.412V45.9c0-1.944,0.361-3.765,1.082-5.459c0.72-1.693,1.709-3.184,2.966-4.471
	c1.253-1.285,2.729-2.306,4.423-3.058c1.694-0.753,3.513-1.161,5.459-1.224h13.834C443.793,31.688,444.264,32.159,444.264,33.1z
	 M479.819,67.924c0.909-0.941,1.365-2.038,1.365-3.294c0-1.318-0.456-2.432-1.365-3.342c-0.91-0.908-2.022-1.364-3.341-1.364
	h-15.058c-1.946,0-3.781-0.377-5.507-1.129c-1.726-0.754-3.216-1.757-4.471-3.012s-2.259-2.746-3.012-4.472
	c-0.752-1.725-1.129-3.56-1.129-5.506c0-1.944,0.377-3.779,1.129-5.506c0.753-1.725,1.757-3.214,3.012-4.47s2.745-2.259,4.471-3.013
	c1.726-0.752,3.561-1.129,5.507-1.129h24.939c0.941,0,1.412,0.471,1.412,1.412v6.588c0,0.941-0.471,1.412-1.412,1.412h-24.939
	c-1.319,0-2.434,0.456-3.342,1.364c-0.91,0.91-1.364,2.023-1.364,3.341c0,1.256,0.454,2.353,1.364,3.294
	c0.908,0.941,2.022,1.412,3.342,1.412h15.058c1.944,0,3.779,0.376,5.506,1.13c1.726,0.752,3.215,1.756,4.471,3.012
	c1.254,1.256,2.259,2.746,3.012,4.471c0.753,1.726,1.129,3.562,1.129,5.506c0,1.945-0.376,3.78-1.129,5.505
	c-0.753,1.727-1.758,3.217-3.012,4.471c-1.256,1.256-2.745,2.259-4.471,3.012c-1.727,0.753-3.562,1.13-5.506,1.13h-25.035
	c-0.941,0-1.412-0.471-1.412-1.412v-6.588c0-0.94,0.471-1.411,1.412-1.411h25.035C477.797,69.336,478.909,68.865,479.819,67.924z"/>
<path id="logo" fill="#BFBFBF" d="M91.937,34.717v0.713c0,2.362-1.916,4.633-4.277,4.633h-3.205V22.959h3.205
	c2.361,0,4.277,1.559,4.277,3.919v2.493h12.354V0H0v104.289h17.108V40.241c0-6.189,5.035-10.87,11.224-10.87h2.672v-2.493
	c0-2.36,1.915-3.919,4.275-3.919h4.276v17.104H35.28c-2.361,0-4.275-2.271-4.275-4.633v-0.713h-2.672
	c-3.242,0-5.879,2.282-5.879,5.524v64.048h81.837V34.717H91.937z M53.453,38.993h-7.015l-1.939,1.069h-1.736V22.959h1.736
	l1.939,1.067h7.015V38.993z M67.35,38.993H56.66V24.026h10.69V38.993z M81.246,40.062h-2.804l-1.941-1.069h-5.945V24.026h5.945
	l1.941-1.067h2.804V40.062z"/>
</svg>
